PathFileType	4	(X/Y/Z)	/Users/itak/Documents/Research/Walk-IL/dataset/trc/00380_00012.trc
DataRate	CameraRate	NumFrames	NumMarkers	Units	OrigDataRate	OrigDataStartFrame	OrigNumFrames
100.000000	100.000000	4	57	mm	100.000000	279	559
Frame#	Time	RPSI			LPSI			L3			STRN			T10			C7			CLAV			RBAK			LBAK			LSHO			LUPA			LAEL			LAOL			LWTS			LWPS			LFRA			LIFD			LHPS			LHTS			RSHO			RUPA			RAEL			RAOL			RWPS			RFRA			RIFD			RBHD			LFHD			RFHD			LBHD			LHIP			RHIP			RASI			LASI			LKNE			LTHI			LANK			LTIP			LTOE			LMT1			LMT5			LHEE			RKNE			RTHI			RANK			RTIP			RTOE			RMT1			RMT5			RHEE			RWTS			RHPS			RHTS			*53			*54			*55			*56			
		X1	Y1	Z1	X2	Y2	Z2	X3	Y3	Z3	X4	Y4	Z4	X5	Y5	Z5	X6	Y6	Z6	X7	Y7	Z7	X8	Y8	Z8	X9	Y9	Z9	X10	Y10	Z10	X11	Y11	Z11	X12	Y12	Z12	X13	Y13	Z13	X14	Y14	Z14	X15	Y15	Z15	X16	Y16	Z16	X17	Y17	Z17	X18	Y18	Z18	X19	Y19	Z19	X20	Y20	Z20	X21	Y21	Z21	X22	Y22	Z22	X23	Y23	Z23	X24	Y24	Z24	X25	Y25	Z25	X26	Y26	Z26	X27	Y27	Z27	X28	Y28	Z28	X29	Y29	Z29	X30	Y30	Z30	X31	Y31	Z31	X32	Y32	Z32	X33	Y33	Z33	X34	Y34	Z34	X35	Y35	Z35	X36	Y36	Z36	X37	Y37	Z37	X38	Y38	Z38	X39	Y39	Z39	X40	Y40	Z40	X41	Y41	Z41	X42	Y42	Z42	X43	Y43	Z43	X44	Y44	Z44	X45	Y45	Z45	X46	Y46	Z46	X47	Y47	Z47	X48	Y48	Z48	X49	Y49	Z49	X50	Y50	Z50	X51	Y51	Z51	X52	Y52	Z52	X53	Y53	Z53	X54	Y54	Z54	X55	Y55	Z55	X56	Y56	Z56	X57	Y57	Z57	

280	2.79	-591.2083740234375	930.2823486328125	157.3097229003906	-613.7260131835938	930.8426513671875	27.8287525177002	-601.1506958007812	1012.463317871094	88.20197296142578	-366.19140625	1162.123046875	66.04817199707031	-614.3750610351562	1111.08251953125	69.5570068359375	-576.7984008789062	1359.047607421875	55.13824844360352	-422.3182678222656	1280.178588867188	67.7449951171875	-621.8245239257812	1210.715576171875	111.1532287597656	-588.9778442382812	1325.32861328125	-48.66923522949219	-500.1841125488281	1344.90478515625	-93.63702392578125	-515.41015625	1228.944580078125	-169.0577392578125	-463.0508117675781	1044.570434570312	-207.6370391845703	-512.9823608398438	1002.342041015625	-151.3749084472656	-268.1556701660156	958.7302856445312	-170.5292816162109	-291.9910888671875	913.0781860351562	-235.6280975341797	-399.3476257324219	978.25341796875	-222.0133972167969	-126.7542190551758	850.8466186523438	-185.3396759033203	-215.3416137695312	872.2198486328125	-231.4015045166016	-182.8721466064453	916.2691040039062	-197.2996826171875	-532.6190185546875	1331.243896484375	214.5113220214844	-562.3361206054688	1270.699340820312	264.04638671875	-631.8309936523438	1019.010986328125	285.0681457519531	-615.7589721679688	1009.49560546875	192.1796875	-633.81298828125	786.156982421875	339.0717163085938	-633.5436401367188	953.1796875	308.8459777832031	-633.0379028320312	616.16259765625	292.2092590332031	-541.7400512695312	1540.844604492188	152.9439239501953	-399.9591064453125	1554.3154296875	13.38310527801514	-410.9098815917969	1554.739379882812	136.1793670654297	-546.3634033203125	1538.177490234375	-9.363542556762695	-548.8416748046875	918.9594116210938	-99.55275726318359	-487.7090454101562	911.4769287109375	253.6704711914062	-373.2447509765625	924.5022583007812	170.4449157714844	-427.2015380859375	909.6235961914062	-87.16361236572266	-612.0671997070312	439.3945922851562	-57.13838958740234	-582.312744140625	580.4487915039062	-82.10388946533203	-854.3701782226562	59.8583869934082	17.70705986022949	-738.7273559570312	237.4893798828125	-31.14956665039062	-647.1478881835938	40.39471435546875	98.21835327148438	-727.3512573242188	51.17857360839844	120.4131088256836	-729.5139770507812	41.69837188720703	14.86106586456299	-896.865234375	75.18112945556641	69.67437744140625	-267.0618591308594	471.7605285644531	189.5164947509766	-351.5576782226562	718.0247192382812	226.1177368164062	-142.1549530029297	56.35537338256836	141.0982818603516	-211.1539306640625	359.5520935058594	169.9838104248047	9.465049743652344	108.5116271972656	52.23860549926758	-62.17585372924805	86.74212646484375	32.6285514831543	-56.36088562011719	68.99500274658203	132.5381774902344	-213.787109375	28.06882667541504	98.56310272216797	-570.3905029296875	777.1947631835938	300.7814636230469	-660.3870849609375	700.5720825195312	337.5366516113281	-596.2361450195312	674.036376953125	321.4029846191406	nan	nan	nan	nan	nan	nan	nan	nan	nan	nan	nan	nan	
281	2.8	-577.107177734375	929.4102172851562	157.0951995849609	-599.4967651367188	929.318603515625	27.44159317016602	-587.3726196289062	1010.42822265625	87.58731079101562	-353.00732421875	1160.93212890625	66.27507019042969	-601.2195434570312	1109.393188476562	69.44614410400391	-564.2745361328125	1357.401977539062	55.64890670776367	-409.4152526855469	1278.828979492188	68.08258056640625	-608.8290405273438	1209.006591796875	111.4548492431641	-576.4482421875	1323.646728515625	-48.1557502746582	-487.7576904296875	1343.339599609375	-93.22553253173828	-503.1623229980469	1227.287963867188	-168.4944763183594	-450.9793395996094	1042.63916015625	-206.9166107177734	-500.8847045898438	1000.807983398438	-150.3273620605469	-256.5884399414062	954.436767578125	-170.0047149658203	-281.2171020507812	909.25244140625	-235.1705474853516	-387.6640014648438	975.565185546875	-221.3150939941406	-116.8498229980469	844.4574584960938	-185.4078063964844	-205.1180419921875	867.3397216796875	-231.2128143310547	-171.9576568603516	910.888671875	-197.0349884033203	-519.7597045898438	1329.582153320312	214.9844665527344	-549.301513671875	1268.891723632812	264.4475402832031	-618.9078979492188	1017.286987304688	285.0151062011719	-602.8004150390625	1007.886840820312	192.0946197509766	-621.4889526367188	784.4552612304688	338.705322265625	-620.7760009765625	951.4662475585938	308.7055053710938	-621.1649780273438	614.5343627929688	291.5852966308594	-529.8256225585938	1539.432495117188	153.0445251464844	-388.3959045410156	1553.167358398438	13.10974597930908	-399.0296020507812	1553.840087890625	135.9268188476562	-534.8231811523438	1536.385009765625	-9.250433921813965	-534.3798217773438	916.650146484375	-99.8385009765625	-473.922607421875	911.304443359375	253.8609619140625	-359.3117065429688	923.8119506835938	170.6268615722656	-412.9415588378906	907.1792602539062	-87.17797088623047	-600.656982421875	437.9808959960938	-55.99005889892578	-569.7230224609375	578.6536865234375	-80.94074249267578	-852.8189697265625	63.64713668823242	16.91242980957031	-732.3765869140625	239.2152099609375	-31.15654754638672	-646.82373046875	40.17033767700195	98.32827758789062	-726.4236450195312	52.59638977050781	119.9076919555664	-728.5535888671875	41.71382904052734	14.70018577575684	-894.996337890625	80.98802947998047	68.69546508789062	-252.5983581542969	471.4700622558594	186.6458587646484	-336.8511047363281	717.1144409179688	225.6255950927734	-137.5317535400391	54.68274307250977	138.9682769775391	-198.5106811523438	358.1256713867188	166.5090179443359	16.03751945495605	99.32646179199219	49.30532455444336	-56.74795913696289	80.01617431640625	30.11404991149902	-51.80495071411133	64.30893707275391	130.0180206298828	-210.3798217773438	28.74529457092285	96.760498046875	-558.1109008789062	775.3403930664062	300.4299926757812	-648.3034057617188	698.93798828125	336.9931945800781	-584.3344116210938	672.2118530273438	321.0603332519531	nan	nan	nan	nan	nan	nan	nan	nan	nan	nan	nan	nan	
282	2.81	-562.6953735351562	929.0609130859375	156.7413482666016	-584.8905029296875	928.1835327148438	26.87510108947754	-573.3511962890625	1008.587646484375	86.74283599853516	-339.6524047851562	1160.174926757812	66.53910827636719	-588.021240234375	1108.068969726562	69.32002258300781	-551.6594848632812	1356.1015625	56.15811157226562	-396.3568725585938	1277.912353515625	68.4429931640625	-595.6621704101562	1207.622436523438	111.7468414306641	-563.7831420898438	1322.317260742188	-47.64418029785156	-475.1969299316406	1342.138427734375	-92.81414794921875	-490.8287048339844	1225.979736328125	-167.9066162109375	-439.0421447753906	1040.947631835938	-206.1902160644531	-488.9539489746094	999.6526489257812	-149.1993713378906	-245.349365234375	949.7655639648438	-169.4908905029297	-270.9476013183594	905.1138305664062	-234.6712951660156	-376.2476196289062	972.8765869140625	-220.5840911865234	-107.7787246704102	837.1348876953125	-185.4939270019531	-195.5768432617188	861.8646240234375	-230.9973907470703	-161.5673065185547	904.7289428710938	-196.7825012207031	-506.7997741699219	1328.286010742188	215.4722747802734	-536.0900268554688	1267.407470703125	264.8788146972656	-605.5542602539062	1015.825805664062	285.1187744140625	-589.543701171875	1006.539489746094	192.1031494140625	-608.4483642578125	783.000244140625	338.4434814453125	-607.5008544921875	950.014892578125	308.6868896484375	-608.5335083007812	613.1734008789062	291.013427734375	-517.8612060546875	1538.392211914062	153.1692047119141	-376.8034973144531	1552.415405273438	12.84146213531494	-387.0946960449219	1553.34326171875	135.6865844726562	-523.234375	1534.964965820312	-9.103253364562988	-519.4365234375	914.6024780273438	-100.2195587158203	-459.9814147949219	911.64306640625	254.0950927734375	-345.1400451660156	923.576416015625	170.9524536132812	-398.288818359375	904.9823608398438	-87.09072113037109	-588.6572265625	436.7926635742188	-54.95479583740234	-556.5994262695312	577.0393676757812	-79.74085235595703	-850.8654174804688	68.04017639160156	15.9859504699707	-725.563720703125	241.4525604248047	-31.29500389099121	-646.4219970703125	40.00576782226562	98.33737182617188	-725.2672119140625	54.208740234375	119.2762832641602	-727.4332275390625	41.71227645874023	14.49327087402344	-892.4757080078125	87.63629913330078	67.56012725830078	-238.2220611572266	471.5537109375	183.7292022705078	-322.169921875	716.4949340820312	225.281982421875	-133.9134216308594	53.35774993896484	137.1620025634766	-186.0656280517578	357.0446166992188	162.9645385742188	21.84622764587402	89.25733947753906	46.73099517822266	-52.17647552490234	72.88468933105469	27.99310111999512	-48.37856292724609	59.6027946472168	127.8935165405273	-208.0636901855469	30.01432037353516	95.2901611328125	-545.2488403320312	773.7866821289062	300.0546264648438	-635.4475708007812	697.5403442382812	336.57666015625	-571.7144775390625	670.6716918945312	320.6929626464844	nan	nan	nan	nan	nan	nan	nan	nan	nan	nan	nan	nan	
283	2.82	-548.04736328125	929.2346801757812	156.2798614501953	-569.9486083984375	927.4227294921875	26.18741607666016	-559.0767211914062	1007.000366210938	85.73998260498047	-326.1489868164062	1159.861328125	66.81813812255859	-574.7765502929688	1107.132446289062	69.20857238769531	-538.9559936523438	1355.169189453125	56.64449310302734	-383.1632385253906	1277.440795898438	68.80837249755859	-582.3372802734375	1206.589721679688	112.0349655151367	-550.9930419921875	1321.367797851562	-47.1563720703125	-462.5056762695312	1341.321411132812	-92.42343139648438	-478.4105529785156	1225.036010742188	-167.3063201904297	-427.2305603027344	1039.520385742188	-205.4762573242188	-477.173828125	998.8860473632812	-148.0183715820312	-234.4757995605469	944.751220703125	-168.9856109619141	-261.1860046386719	900.7122192382812	-234.1344757080078	-365.0965576171875	970.2208862304688	-219.8316497802734	-99.56954956054688	828.9800415039062	-185.5597534179688	-186.7400054931641	855.860595703125	-230.7387084960938	-151.7374877929688	897.844482421875	-196.5215148925781	-493.7539978027344	1327.377075195312	215.9561614990234	-522.7319946289062	1266.27197265625	265.3213500976562	-591.7734985351562	1014.644287109375	285.3786010742188	-575.98583984375	1005.460571289062	192.2098083496094	-594.6867065429688	781.8119506835938	338.2904968261719	-593.7183227539062	948.845458984375	308.7901611328125	-595.1290283203125	612.0977172851562	290.5003356933594	-505.8411865234375	1537.743408203125	153.3162384033203	-365.1764221191406	1552.077758789062	12.58513927459717	-375.1109924316406	1553.261840820312	135.4582061767578	-511.5897216796875	1533.9375	-8.927837371826172	-504.126220703125	912.8564453125	-100.6479263305664	-445.8919677734375	912.491943359375	254.3466949462891	-330.7649536132812	923.8182983398438	171.3876037597656	-383.2977905273438	903.09716796875	-86.89028167724609	-575.9967041015625	435.8424377441406	-54.14249420166016	-542.9303588867188	575.6253051757812	-78.56937408447266	-848.400634765625	73.04676818847656	14.88912105560303	-718.19482421875	244.2019348144531	-31.64181900024414	-645.961181640625	39.88348007202148	98.23486328125	-723.8345947265625	56.00423812866211	118.4776306152344	-726.1790771484375	41.68871688842773	14.21819877624512	-889.164794921875	95.14690399169922	66.20652770996094	-223.9454040527344	472.0294494628906	180.8116149902344	-307.5401916503906	716.2269897460938	225.0804901123047	-130.9488983154297	52.41982650756836	135.6590728759766	-173.7786865234375	356.373046875	159.4152221679688	26.97698402404785	79.00777435302734	44.48699569702148	-48.27899169921875	65.85866546630859	26.23476028442383	-45.72877502441406	55.22954940795898	126.1367797851562	-206.3754577636719	31.7133903503418	94.16944885253906	-531.7682495117188	772.5639038085938	299.6709289550781	-621.813232421875	696.3948364257812	336.2919921875	-558.361328125	669.4413452148438	320.2880249023438	nan	nan	nan	nan	nan	nan	nan	nan	nan	nan	nan	nan	
